<svg xmlns="http://www.w3.org/2000/svg" viewBox="0 0 800 400" role="img" aria-label="A morning scene over a warm sunlit window over a sill."><defs><linearGradient id="sky" x1="0" x2="0" y1="0" y2="1"><stop offset="0%" stop-color="#dbeefb"/><stop offset="100%" stop-color="#b9dff3"/></linearGradient></defs><rect width="800" height="400" fill="url(#sky)"/><defs><radialGradient id="halo" cx="50%" cy="50%" r="50%"><stop offset="0%" stop-color="#fff5c8"/><stop offset="100%" stop-color="#fff5c8" stop-opacity="0"/></radialGradient></defs><circle cx="354" cy="134" r="147" fill="url(#halo)"/><circle cx="354" cy="134" r="49" fill="#fff5c8"/><g opacity="0.85"><ellipse cx="498" cy="114" rx="34" ry="13" fill="#fff"/><ellipse cx="678" cy="137" rx="31" ry="11" fill="#fff"/><ellipse cx="258" cy="80" rx="29" ry="10" fill="#fff"/><ellipse cx="438" cy="103" rx="28" ry="13" fill="#fff"/></g><rect width="800" height="400" fill="#f6e7d3"/><rect x="220" y="60" width="360" height="240" fill="#dde9f1" rx="8"/><rect x="232" y="72" width="336" height="216" fill="url(#sky)"/><line x1="400" y1="72" x2="400" y2="288" stroke="#fff" stroke-width="6"/><line x1="232" y1="180" x2="568" y2="180" stroke="#fff" stroke-width="6"/><rect x="220" y="60" width="360" height="240" fill="none" stroke="#bba074" stroke-width="6" rx="8"/><rect x="200" y="288" width="400" height="14" fill="#bba074"/><rect x="350" y="240" width="50" height="48" fill="#a47148" rx="4"/><g fill="#5a8245">  <ellipse cx="365" cy="240" rx="10" ry="6"/>  <ellipse cx="385" cy="234" rx="11" ry="6"/>  <ellipse cx="375" cy="226" rx="9" ry="5"/></g></svg>
