<svg xmlns="http://www.w3.org/2000/svg" viewBox="0 0 800 400" role="img" aria-label="A late afternoon scene over a still pond with reeds."><defs><linearGradient id="sky" x1="0" x2="0" y1="0" y2="1"><stop offset="0%" stop-color="#fde6c4"/><stop offset="100%" stop-color="#f6c397"/></linearGradient></defs><rect width="800" height="400" fill="url(#sky)"/><defs><radialGradient id="halo" cx="50%" cy="50%" r="50%"><stop offset="0%" stop-color="#fff3cf"/><stop offset="100%" stop-color="#fff3cf" stop-opacity="0"/></radialGradient></defs><circle cx="375" cy="155" r="120" fill="url(#halo)"/><circle cx="375" cy="155" r="40" fill="#fff3cf"/><g opacity="0.85"><ellipse cx="645" cy="135" rx="31" ry="11" fill="#ffe6c8"/><ellipse cx="225" cy="78" rx="29" ry="10" fill="#ffe6c8"/><ellipse cx="405" cy="101" rx="28" ry="13" fill="#ffe6c8"/><ellipse cx="585" cy="124" rx="37" ry="14" fill="#ffe6c8"/><ellipse cx="165" cy="67" rx="32" ry="12" fill="#ffe6c8"/></g><g fill="none" stroke="#3f3f3f" stroke-width="2" stroke-linecap="round"><path d="M375 185 q8.0 -6.0 16.0 0 q8.0 -6.0 16.0 0"/></g><rect y="220" width="800" height="180" fill="#6f9eb1"/><g opacity="0.55" fill="#5a7245">  <ellipse cx="640" cy="240" rx="42" ry="3"/>  <ellipse cx="640" cy="260" rx="60" ry="3"/></g><g><ellipse cx="180" cy="290" rx="44" ry="10" fill="#5a7245"/><ellipse cx="320" cy="320" rx="52" ry="11" fill="#5a7245" opacity="0.85"/><ellipse cx="500" cy="305" rx="38" ry="9" fill="#5a7245"/></g><g stroke="#5a7245" stroke-width="3" fill="none">  <line x1="80" y1="280" x2="80" y2="220"/>  <line x1="100" y1="280" x2="100" y2="208"/>  <line x1="120" y1="280" x2="120" y2="225"/></g></svg>
