<svg xmlns="http://www.w3.org/2000/svg" viewBox="0 0 800 400" role="img" aria-label="A night scene over a forest path between trees."><defs><linearGradient id="sky" x1="0" x2="0" y1="0" y2="1"><stop offset="0%" stop-color="#1f2a4a"/><stop offset="100%" stop-color="#3b4e7e"/></linearGradient></defs><rect width="800" height="400" fill="url(#sky)"/><defs><radialGradient id="halo" cx="50%" cy="50%" r="50%"><stop offset="0%" stop-color="#fef0c7"/><stop offset="100%" stop-color="#fef0c7" stop-opacity="0"/></radialGradient></defs><circle cx="500" cy="120" r="120" fill="url(#halo)"/><circle cx="500" cy="120" r="40" fill="#fef0c7"/><g fill="#fef0c7"><circle cx="80" cy="50" r="1.5"/><circle cx="153" cy="79" r="2.5"/><circle cx="226" cy="108" r="2.0"/><circle cx="299" cy="137" r="1.5"/><circle cx="372" cy="166" r="2.5"/><circle cx="445" cy="195" r="2.0"/><circle cx="518" cy="74" r="1.5"/><circle cx="591" cy="103" r="2.5"/><circle cx="664" cy="132" r="2.0"/><circle cx="737" cy="161" r="1.5"/><circle cx="110" cy="190" r="2.5"/><circle cx="183" cy="69" r="2.0"/></g><path d="M0 240 Q200 200 400 230 T800 220 L800 280 L0 280 Z" fill="#1f2a4a" opacity="0.7"/><rect y="280" width="800" height="120" fill="#d6c39a"/><path d="M380 400 Q400 350 410 320 Q420 300 460 280 L520 280 Q470 320 440 360 Q425 380 420 400 Z" fill="#c0a778"/><g><polygon points="120,270 90,330 150,330" fill="#0c1228"/><rect x="115" y="328" width="10" height="22" fill="#7a432a"/></g><g><polygon points="220,280 188,342 252,342" fill="#0c1228"/><rect x="215" y="340" width="10" height="22" fill="#7a432a"/></g><g><polygon points="600,265 565,335 635,335" fill="#0c1228"/><rect x="595" y="333" width="10" height="22" fill="#7a432a"/></g><g><polygon points="700,290 670,350 730,350" fill="#0c1228"/><rect x="695" y="348" width="10" height="22" fill="#7a432a"/></g></svg>
