<svg xmlns="http://www.w3.org/2000/svg" viewBox="0 0 800 400" role="img" aria-label="A dawn scene over a still pond with reeds."><defs><linearGradient id="sky" x1="0" x2="0" y1="0" y2="1"><stop offset="0%" stop-color="#f8d6c9"/><stop offset="100%" stop-color="#f6b48e"/></linearGradient></defs><rect width="800" height="400" fill="url(#sky)"/><defs><radialGradient id="halo" cx="50%" cy="50%" r="50%"><stop offset="0%" stop-color="#fff5c8"/><stop offset="100%" stop-color="#fff5c8" stop-opacity="0"/></radialGradient></defs><circle cx="422" cy="122" r="156" fill="url(#halo)"/><circle cx="422" cy="122" r="52" fill="#fff5c8"/><g opacity="0.85"><ellipse cx="174" cy="102" rx="34" ry="13" fill="#fff"/><ellipse cx="354" cy="125" rx="31" ry="14" fill="#fff"/><ellipse cx="534" cy="68" rx="38" ry="15" fill="#fff"/><ellipse cx="714" cy="91" rx="33" ry="12" fill="#fff"/></g><g fill="none" stroke="#3f3f3f" stroke-width="2" stroke-linecap="round"><path d="M422 146 q7.199999999999999 -5.3999999999999995 14.399999999999999 0 q7.199999999999999 -5.3999999999999995 14.399999999999999 0"/><path d="M512 163 q7.199999999999999 -5.3999999999999995 14.399999999999999 0 q7.199999999999999 -5.3999999999999995 14.399999999999999 0"/></g><rect y="220" width="800" height="180" fill="#6f9eb1"/><g opacity="0.55" fill="#3f6c47">  <ellipse cx="640" cy="240" rx="42" ry="3"/>  <ellipse cx="640" cy="260" rx="60" ry="3"/></g><g><ellipse cx="180" cy="290" rx="44" ry="10" fill="#3f6c47"/><ellipse cx="320" cy="320" rx="52" ry="11" fill="#3f6c47" opacity="0.85"/><ellipse cx="500" cy="305" rx="38" ry="9" fill="#3f6c47"/></g><g stroke="#3f6c47" stroke-width="3" fill="none">  <line x1="80" y1="280" x2="80" y2="220"/>  <line x1="100" y1="280" x2="100" y2="208"/>  <line x1="120" y1="280" x2="120" y2="225"/></g></svg>
