<svg xmlns="http://www.w3.org/2000/svg" viewBox="0 0 800 400" role="img" aria-label="A dusk scene over a quiet playground in a field."><defs><linearGradient id="sky" x1="0" x2="0" y1="0" y2="1"><stop offset="0%" stop-color="#d8c0e0"/><stop offset="100%" stop-color="#a87fbb"/></linearGradient></defs><rect width="800" height="400" fill="url(#sky)"/><defs><radialGradient id="halo" cx="50%" cy="50%" r="50%"><stop offset="0%" stop-color="#fde0a0"/><stop offset="100%" stop-color="#fde0a0" stop-opacity="0"/></radialGradient></defs><circle cx="638" cy="98" r="159" fill="url(#halo)"/><circle cx="638" cy="98" r="53" fill="#fde0a0"/><g opacity="0.85"><ellipse cx="286" cy="78" rx="38" ry="15" fill="#d8c0e0"/><ellipse cx="466" cy="101" rx="33" ry="12" fill="#d8c0e0"/><ellipse cx="646" cy="124" rx="30" ry="14" fill="#d8c0e0"/><ellipse cx="226" cy="67" rx="38" ry="12" fill="#d8c0e0"/></g><g fill="none" stroke="#3f3f3f" stroke-width="2" stroke-linecap="round"><path d="M638 194 q7.199999999999999 -5.3999999999999995 14.399999999999999 0 q7.199999999999999 -5.3999999999999995 14.399999999999999 0"/><path d="M328 151 q7.199999999999999 -5.3999999999999995 14.399999999999999 0 q7.199999999999999 -5.3999999999999995 14.399999999999999 0"/></g><rect y="280" width="800" height="120" fill="#615280"/><rect y="320" width="800" height="80" fill="#4a3e63"/><line x1="290" y1="280" x2="320" y2="180" stroke="#2c2244" stroke-width="6"/><line x1="510" y1="280" x2="480" y2="180" stroke="#2c2244" stroke-width="6"/><line x1="320" y1="180" x2="480" y2="180" stroke="#2c2244" stroke-width="6"/><g stroke="#2c2244" stroke-width="2" fill="none">  <line x1="365" y1="180" x2="365" y2="240"/>  <line x1="395" y1="180" x2="395" y2="240"/></g><rect x="358" y="240" width="44" height="6" fill="#a47148" rx="2"/></svg>
