<svg xmlns="http://www.w3.org/2000/svg" viewBox="0 0 800 400" role="img" aria-label="A night scene over a small garden of flowers."><defs><linearGradient id="sky" x1="0" x2="0" y1="0" y2="1"><stop offset="0%" stop-color="#1f2a4a"/><stop offset="100%" stop-color="#3b4e7e"/></linearGradient></defs><rect width="800" height="400" fill="url(#sky)"/><defs><radialGradient id="halo" cx="50%" cy="50%" r="50%"><stop offset="0%" stop-color="#fef0c7"/><stop offset="100%" stop-color="#fef0c7" stop-opacity="0"/></radialGradient></defs><circle cx="319" cy="99" r="162" fill="url(#halo)"/><circle cx="319" cy="99" r="54" fill="#fef0c7"/><g fill="#fef0c7"><circle cx="80" cy="50" r="1.5"/><circle cx="153" cy="79" r="2.5"/><circle cx="226" cy="108" r="2.0"/><circle cx="299" cy="137" r="1.5"/><circle cx="372" cy="166" r="2.5"/><circle cx="445" cy="195" r="2.0"/><circle cx="518" cy="74" r="1.5"/><circle cx="591" cy="103" r="2.5"/><circle cx="664" cy="132" r="2.0"/><circle cx="737" cy="161" r="1.5"/><circle cx="110" cy="190" r="2.5"/><circle cx="183" cy="69" r="2.0"/></g><path d="M0 280 Q200 240 400 260 T800 250 L800 400 L0 400 Z" fill="#1f2a4a"/><path d="M0 320 Q200 295 400 305 T800 300 L800 400 L0 400 Z" fill="#15203a"/><g><line x1="120" y1="395" x2="120" y2="315" stroke="#0c1228" stroke-width="3"/><circle cx="120" cy="309" r="14" fill="#f4a3b6"/><circle cx="120" cy="309" r="4" fill="#fef0c7"/></g><g><line x1="240" y1="395" x2="240" y2="303" stroke="#0c1228" stroke-width="3"/><circle cx="240" cy="297" r="16" fill="#f7c97a"/><circle cx="240" cy="297" r="4" fill="#fef0c7"/></g><g><line x1="380" y1="395" x2="380" y2="325" stroke="#0c1228" stroke-width="3"/><circle cx="380" cy="319" r="12" fill="#cfa1d8"/><circle cx="380" cy="319" r="4" fill="#fef0c7"/></g><g><line x1="520" y1="395" x2="520" y2="307" stroke="#0c1228" stroke-width="3"/><circle cx="520" cy="301" r="15" fill="#f4a3b6"/><circle cx="520" cy="301" r="4" fill="#fef0c7"/></g><g><line x1="680" y1="395" x2="680" y2="325" stroke="#0c1228" stroke-width="3"/><circle cx="680" cy="319" r="12" fill="#f7c97a"/><circle cx="680" cy="319" r="4" fill="#fef0c7"/></g></svg>
