<svg xmlns="http://www.w3.org/2000/svg" viewBox="0 0 800 400" role="img" aria-label="A dusk scene over a gentle beach with waves."><defs><linearGradient id="sky" x1="0" x2="0" y1="0" y2="1"><stop offset="0%" stop-color="#d8c0e0"/><stop offset="100%" stop-color="#a87fbb"/></linearGradient></defs><rect width="800" height="400" fill="url(#sky)"/><defs><radialGradient id="halo" cx="50%" cy="50%" r="50%"><stop offset="0%" stop-color="#fde0a0"/><stop offset="100%" stop-color="#fde0a0" stop-opacity="0"/></radialGradient></defs><circle cx="339" cy="119" r="147" fill="url(#halo)"/><circle cx="339" cy="119" r="49" fill="#fde0a0"/><g opacity="0.85"><ellipse cx="393" cy="99" rx="37" ry="11" fill="#d8c0e0"/><ellipse cx="573" cy="122" rx="41" ry="13" fill="#d8c0e0"/><ellipse cx="153" cy="65" rx="43" ry="14" fill="#d8c0e0"/><ellipse cx="333" cy="88" rx="44" ry="15" fill="#d8c0e0"/><ellipse cx="513" cy="111" rx="45" ry="12" fill="#d8c0e0"/></g><g fill="none" stroke="#3f3f3f" stroke-width="2" stroke-linecap="round"><path d="M339 197 q8.0 -6.0 16.0 0 q8.0 -6.0 16.0 0"/><path d="M429 154 q8.0 -6.0 16.0 0 q8.0 -6.0 16.0 0"/></g><rect y="220" width="800" height="100" fill="#5e8a9d"/><path d="M0 240 Q100 230 200 240 T400 240 T600 240 T800 240 L800 250 L0 250 Z" fill="#a7c4d8" opacity="0.7"/><path d="M0 270 Q100 260 200 270 T400 270 T600 270 T800 270 L800 280 L0 280 Z" fill="#cfe2ee" opacity="0.6"/><rect y="320" width="800" height="80" fill="#f0d9a8"/><rect y="318" width="800" height="6" fill="#fcefcf"/><g fill="#cfa078">  <ellipse cx="120" cy="370" rx="6" ry="3"/>  <ellipse cx="240" cy="380" rx="5" ry="3"/>  <ellipse cx="540" cy="370" rx="6" ry="3"/>  <ellipse cx="680" cy="378" rx="5" ry="3"/></g></svg>
