<svg xmlns="http://www.w3.org/2000/svg" viewBox="0 0 800 400" role="img" aria-label="A morning scene over a forest path between trees."><defs><linearGradient id="sky" x1="0" x2="0" y1="0" y2="1"><stop offset="0%" stop-color="#dbeefb"/><stop offset="100%" stop-color="#b9dff3"/></linearGradient></defs><rect width="800" height="400" fill="url(#sky)"/><defs><radialGradient id="halo" cx="50%" cy="50%" r="50%"><stop offset="0%" stop-color="#fff5c8"/><stop offset="100%" stop-color="#fff5c8" stop-opacity="0"/></radialGradient></defs><circle cx="615" cy="155" r="150" fill="url(#halo)"/><circle cx="615" cy="155" r="50" fill="#fff5c8"/><g opacity="0.85"><ellipse cx="325" cy="135" rx="41" ry="13" fill="#fff"/><ellipse cx="505" cy="78" rx="43" ry="14" fill="#fff"/><ellipse cx="685" cy="101" rx="44" ry="15" fill="#fff"/><ellipse cx="265" cy="124" rx="45" ry="12" fill="#fff"/><ellipse cx="445" cy="67" rx="36" ry="14" fill="#fff"/></g><g fill="none" stroke="#3f3f3f" stroke-width="2" stroke-linecap="round"><path d="M615 185 q8.0 -6.0 16.0 0 q8.0 -6.0 16.0 0"/><path d="M305 142 q8.0 -6.0 16.0 0 q8.0 -6.0 16.0 0"/></g><path d="M0 240 Q200 200 400 230 T800 220 L800 280 L0 280 Z" fill="#a0c891" opacity="0.7"/><rect y="280" width="800" height="120" fill="#d6c39a"/><path d="M380 400 Q400 350 410 320 Q420 300 460 280 L520 280 Q470 320 440 360 Q425 380 420 400 Z" fill="#c0a778"/><g><polygon points="120,270 90,330 150,330" fill="#5a8245"/><rect x="115" y="328" width="10" height="22" fill="#7a432a"/></g><g><polygon points="220,280 188,342 252,342" fill="#5a8245"/><rect x="215" y="340" width="10" height="22" fill="#7a432a"/></g><g><polygon points="600,265 565,335 635,335" fill="#5a8245"/><rect x="595" y="333" width="10" height="22" fill="#7a432a"/></g><g><polygon points="700,290 670,350 730,350" fill="#5a8245"/><rect x="695" y="348" width="10" height="22" fill="#7a432a"/></g></svg>
