<svg xmlns="http://www.w3.org/2000/svg" viewBox="0 0 800 400" role="img" aria-label="A dusk scene over a small garden of flowers."><defs><linearGradient id="sky" x1="0" x2="0" y1="0" y2="1"><stop offset="0%" stop-color="#d8c0e0"/><stop offset="100%" stop-color="#a87fbb"/></linearGradient></defs><rect width="800" height="400" fill="url(#sky)"/><defs><radialGradient id="halo" cx="50%" cy="50%" r="50%"><stop offset="0%" stop-color="#fde0a0"/><stop offset="100%" stop-color="#fde0a0" stop-opacity="0"/></radialGradient></defs><circle cx="558" cy="98" r="159" fill="url(#halo)"/><circle cx="558" cy="98" r="53" fill="#fde0a0"/><g opacity="0.85"><ellipse cx="526" cy="78" rx="38" ry="15" fill="#d8c0e0"/><ellipse cx="706" cy="101" rx="33" ry="12" fill="#d8c0e0"/><ellipse cx="286" cy="124" rx="30" ry="14" fill="#d8c0e0"/><ellipse cx="466" cy="67" rx="38" ry="15" fill="#d8c0e0"/></g><g fill="none" stroke="#3f3f3f" stroke-width="2" stroke-linecap="round"><path d="M558 194 q7.199999999999999 -5.3999999999999995 14.399999999999999 0 q7.199999999999999 -5.3999999999999995 14.399999999999999 0"/><path d="M648 151 q7.199999999999999 -5.3999999999999995 14.399999999999999 0 q7.199999999999999 -5.3999999999999995 14.399999999999999 0"/></g><path d="M0 280 Q200 240 400 260 T800 250 L800 400 L0 400 Z" fill="#615280"/><path d="M0 320 Q200 295 400 305 T800 300 L800 400 L0 400 Z" fill="#4a3e63"/><g><line x1="120" y1="395" x2="120" y2="315" stroke="#2c2244" stroke-width="3"/><circle cx="120" cy="309" r="14" fill="#f4a3b6"/><circle cx="120" cy="309" r="4" fill="#fef0c7"/></g><g><line x1="240" y1="395" x2="240" y2="303" stroke="#2c2244" stroke-width="3"/><circle cx="240" cy="297" r="16" fill="#f7c97a"/><circle cx="240" cy="297" r="4" fill="#fef0c7"/></g><g><line x1="380" y1="395" x2="380" y2="325" stroke="#2c2244" stroke-width="3"/><circle cx="380" cy="319" r="12" fill="#cfa1d8"/><circle cx="380" cy="319" r="4" fill="#fef0c7"/></g><g><line x1="520" y1="395" x2="520" y2="307" stroke="#2c2244" stroke-width="3"/><circle cx="520" cy="301" r="15" fill="#f4a3b6"/><circle cx="520" cy="301" r="4" fill="#fef0c7"/></g><g><line x1="680" y1="395" x2="680" y2="325" stroke="#2c2244" stroke-width="3"/><circle cx="680" cy="319" r="12" fill="#f7c97a"/><circle cx="680" cy="319" r="4" fill="#fef0c7"/></g></svg>
