<svg xmlns="http://www.w3.org/2000/svg" viewBox="0 0 800 400" role="img" aria-label="A late afternoon scene over a small garden of flowers."><defs><linearGradient id="sky" x1="0" x2="0" y1="0" y2="1"><stop offset="0%" stop-color="#fde6c4"/><stop offset="100%" stop-color="#f6c397"/></linearGradient></defs><rect width="800" height="400" fill="url(#sky)"/><defs><radialGradient id="halo" cx="50%" cy="50%" r="50%"><stop offset="0%" stop-color="#fff3cf"/><stop offset="100%" stop-color="#fff3cf" stop-opacity="0"/></radialGradient></defs><circle cx="485" cy="105" r="120" fill="url(#halo)"/><circle cx="485" cy="105" r="40" fill="#fff3cf"/><g opacity="0.85"><ellipse cx="615" cy="85" rx="43" ry="14" fill="#ffe6c8"/><ellipse cx="195" cy="108" rx="44" ry="12" fill="#ffe6c8"/><ellipse cx="375" cy="131" rx="36" ry="11" fill="#ffe6c8"/></g><path d="M0 280 Q200 240 400 260 T800 250 L800 400 L0 400 Z" fill="#c0b178"/><path d="M0 320 Q200 295 400 305 T800 300 L800 400 L0 400 Z" fill="#8a9a5f"/><g><line x1="120" y1="395" x2="120" y2="315" stroke="#5a7245" stroke-width="3"/><circle cx="120" cy="309" r="14" fill="#f4a3b6"/><circle cx="120" cy="309" r="4" fill="#fef0c7"/></g><g><line x1="240" y1="395" x2="240" y2="303" stroke="#5a7245" stroke-width="3"/><circle cx="240" cy="297" r="16" fill="#f7c97a"/><circle cx="240" cy="297" r="4" fill="#fef0c7"/></g><g><line x1="380" y1="395" x2="380" y2="325" stroke="#5a7245" stroke-width="3"/><circle cx="380" cy="319" r="12" fill="#cfa1d8"/><circle cx="380" cy="319" r="4" fill="#fef0c7"/></g><g><line x1="520" y1="395" x2="520" y2="307" stroke="#5a7245" stroke-width="3"/><circle cx="520" cy="301" r="15" fill="#f4a3b6"/><circle cx="520" cy="301" r="4" fill="#fef0c7"/></g><g><line x1="680" y1="395" x2="680" y2="325" stroke="#5a7245" stroke-width="3"/><circle cx="680" cy="319" r="12" fill="#f7c97a"/><circle cx="680" cy="319" r="4" fill="#fef0c7"/></g></svg>
