<svg xmlns="http://www.w3.org/2000/svg" viewBox="0 0 800 400" role="img" aria-label="A midday scene over a country road winding through hills."><defs><linearGradient id="sky" x1="0" x2="0" y1="0" y2="1"><stop offset="0%" stop-color="#cfe8f7"/><stop offset="100%" stop-color="#a7d4ef"/></linearGradient></defs><rect width="800" height="400" fill="url(#sky)"/><defs><radialGradient id="halo" cx="50%" cy="50%" r="50%"><stop offset="0%" stop-color="#fff5c8"/><stop offset="100%" stop-color="#fff5c8" stop-opacity="0"/></radialGradient></defs><circle cx="411" cy="111" r="138" fill="url(#halo)"/><circle cx="411" cy="111" r="46" fill="#fff5c8"/><g opacity="0.85"><ellipse cx="297" cy="91" rx="37" ry="11" fill="#fff"/><ellipse cx="477" cy="114" rx="41" ry="13" fill="#fff"/><ellipse cx="657" cy="137" rx="43" ry="11" fill="#fff"/><ellipse cx="237" cy="80" rx="35" ry="10" fill="#fff"/><ellipse cx="417" cy="103" rx="40" ry="10" fill="#fff"/></g><path d="M0 280 Q200 240 400 270 T800 250 L800 330 L0 330 Z" fill="#9bc88a"/><path d="M0 330 Q200 300 400 320 T800 310 L800 400 L0 400 Z" fill="#7eb073"/><path d="M380 400 Q400 360 410 330 Q420 300 440 270 L460 270 Q450 300 440 330 Q430 360 420 400 Z" fill="#bca38b"/><line x1="420" y1="395" x2="425" y2="370" stroke="#fff5c8" stroke-width="4"/><line x1="430" y1="345" x2="436" y2="320" stroke="#fff5c8" stroke-width="3"/></svg>
