<svg xmlns="http://www.w3.org/2000/svg" viewBox="0 0 800 400" role="img" aria-label="A late afternoon scene over a quiet playground in a field."><defs><linearGradient id="sky" x1="0" x2="0" y1="0" y2="1"><stop offset="0%" stop-color="#fde6c4"/><stop offset="100%" stop-color="#f6c397"/></linearGradient></defs><rect width="800" height="400" fill="url(#sky)"/><defs><radialGradient id="halo" cx="50%" cy="50%" r="50%"><stop offset="0%" stop-color="#fff3cf"/><stop offset="100%" stop-color="#fff3cf" stop-opacity="0"/></radialGradient></defs><circle cx="413" cy="113" r="129" fill="url(#halo)"/><circle cx="413" cy="113" r="43" fill="#fff3cf"/><g opacity="0.85"><ellipse cx="711" cy="93" rx="31" ry="14" fill="#ffe6c8"/><ellipse cx="291" cy="116" rx="38" ry="12" fill="#ffe6c8"/><ellipse cx="471" cy="139" rx="42" ry="14" fill="#ffe6c8"/></g><g fill="none" stroke="#3f3f3f" stroke-width="2" stroke-linecap="round"><path d="M413 179 q6.3999999999999995 -4.8 12.799999999999999 0 q6.3999999999999995 -4.8 12.799999999999999 0"/><path d="M503 196 q6.3999999999999995 -4.8 12.799999999999999 0 q6.3999999999999995 -4.8 12.799999999999999 0"/></g><rect y="280" width="800" height="120" fill="#c0b178"/><rect y="320" width="800" height="80" fill="#8a9a5f"/><line x1="290" y1="280" x2="320" y2="180" stroke="#5a7245" stroke-width="6"/><line x1="510" y1="280" x2="480" y2="180" stroke="#5a7245" stroke-width="6"/><line x1="320" y1="180" x2="480" y2="180" stroke="#5a7245" stroke-width="6"/><g stroke="#5a7245" stroke-width="2" fill="none">  <line x1="365" y1="180" x2="365" y2="240"/>  <line x1="395" y1="180" x2="395" y2="240"/></g><rect x="358" y="240" width="44" height="6" fill="#a47148" rx="2"/></svg>
