<svg xmlns="http://www.w3.org/2000/svg" viewBox="0 0 800 400" role="img" aria-label="A late afternoon scene over a gentle beach with waves."><defs><linearGradient id="sky" x1="0" x2="0" y1="0" y2="1"><stop offset="0%" stop-color="#fde6c4"/><stop offset="100%" stop-color="#f6c397"/></linearGradient></defs><rect width="800" height="400" fill="url(#sky)"/><defs><radialGradient id="halo" cx="50%" cy="50%" r="50%"><stop offset="0%" stop-color="#fff3cf"/><stop offset="100%" stop-color="#fff3cf" stop-opacity="0"/></radialGradient></defs><circle cx="623" cy="83" r="144" fill="url(#halo)"/><circle cx="623" cy="83" r="48" fill="#fff3cf"/><g opacity="0.85"><ellipse cx="581" cy="63" rx="39" ry="15" fill="#ffe6c8"/><ellipse cx="161" cy="86" rx="33" ry="12" fill="#ffe6c8"/><ellipse cx="341" cy="109" rx="30" ry="14" fill="#ffe6c8"/><ellipse cx="521" cy="132" rx="38" ry="15" fill="#ffe6c8"/><ellipse cx="701" cy="75" rx="33" ry="15" fill="#ffe6c8"/></g><g fill="none" stroke="#3f3f3f" stroke-width="2" stroke-linecap="round"><path d="M623 149 q8.0 -6.0 16.0 0 q8.0 -6.0 16.0 0"/><path d="M313 166 q8.0 -6.0 16.0 0 q8.0 -6.0 16.0 0"/></g><rect y="220" width="800" height="100" fill="#5e8a9d"/><path d="M0 240 Q100 230 200 240 T400 240 T600 240 T800 240 L800 250 L0 250 Z" fill="#a7c4d8" opacity="0.7"/><path d="M0 270 Q100 260 200 270 T400 270 T600 270 T800 270 L800 280 L0 280 Z" fill="#cfe2ee" opacity="0.6"/><rect y="320" width="800" height="80" fill="#f0d9a8"/><rect y="318" width="800" height="6" fill="#fcefcf"/><g fill="#cfa078">  <ellipse cx="120" cy="370" rx="6" ry="3"/>  <ellipse cx="240" cy="380" rx="5" ry="3"/>  <ellipse cx="540" cy="370" rx="6" ry="3"/>  <ellipse cx="680" cy="378" rx="5" ry="3"/></g></svg>
