<svg xmlns="http://www.w3.org/2000/svg" viewBox="0 0 800 400" role="img" aria-label="A still pond with reeds at sunset">
  <defs>
    <linearGradient id="p-sky" x1="0" x2="0" y1="0" y2="1">
      <stop offset="0%" stop-color="#fbe5cd"/>
      <stop offset="100%" stop-color="#f6c397"/>
    </linearGradient>
    <linearGradient id="p-water" x1="0" x2="0" y1="0" y2="1">
      <stop offset="0%" stop-color="#a3c8d4"/>
      <stop offset="100%" stop-color="#5e8a9d"/>
    </linearGradient>
  </defs>
  <rect width="800" height="220" fill="url(#p-sky)"/>
  <circle cx="640" cy="170" r="38" fill="#fff3cf"/>
  <rect y="220" width="800" height="180" fill="url(#p-water)"/>
  <ellipse cx="640" cy="220" rx="38" ry="6" fill="#fff3cf" opacity="0.6"/>
  <g fill="#5e8a9d" opacity="0.55">
    <ellipse cx="640" cy="240" rx="42" ry="3"/>
    <ellipse cx="640" cy="260" rx="60" ry="3"/>
    <ellipse cx="640" cy="280" rx="50" ry="2"/>
  </g>
  <g>
    <ellipse cx="180" cy="290" rx="44" ry="10" fill="#5a8245"/>
    <ellipse cx="320" cy="320" rx="52" ry="11" fill="#3f6c47"/>
    <ellipse cx="500" cy="305" rx="38" ry="9" fill="#5a8245"/>
  </g>
  <g stroke="#3f6c47" stroke-width="3" fill="none">
    <line x1="80" y1="280" x2="80" y2="220"/>
    <line x1="100" y1="280" x2="100" y2="208"/>
    <line x1="120" y1="280" x2="120" y2="225"/>
    <line x1="60" y1="280" x2="60" y2="232"/>
  </g>
  <g fill="#7a432a">
    <rect x="76" y="200" width="8" height="22" rx="2"/>
    <rect x="96" y="190" width="8" height="22" rx="2"/>
    <rect x="116" y="208" width="8" height="22" rx="2"/>
    <rect x="56" y="216" width="8" height="22" rx="2"/>
  </g>
</svg>
